# xmcd
# Track frame offsets:
# 150
# 19809
# 39082
# 60038
# 76692
# 92000
# 110987
# 126822
# 144083
# 162463
# 180698
# 201783
# 220541
# 240200
# 257684
# 280074
# 293626
#
# Disc length: 4164 seconds
# Revision: 0
# Processed by: cddbd v1.5.1PL0 Copyright (c) Steve Scherf et al.
# Submitted via: VisiTrax 2.9.10.228 - For more info visit www.synapsa.com
#
DISCID=d7104211
DTITLE=Twain, Shania - Country Karaoke Classics  CKC004
DYEAR=1900
DGENRE=Karaoke
TTITLE0=Any Man Of Mine
TTITLE1=Whose Bed Have Your Boots Been Under
TTITLE2=If You're Not In It For Love (I'm Outta Here)
TTITLE3=When
TTITLE4=Ka Ching!
TTITLE5=I'm Jealous
TTITLE6=It Only Hurts When I'm Breathing
TTITLE7=Cest La Vie
TTITLE8=Juanita
TTITLE9=Thank You Baby
TTITLE10=Wanna Get To Know You That Good
TTITLE11=When You Kiss Me
TTITLE12=Nah!
TTITLE13=She's Not Just A Pretty Face
TTITLE14=Forever And For Always
TTITLE15=Up!
TTITLE16=I'm Gonna Getcha Good
EXTD=
EXTT0=
EXTT1=
EXTT2=
EXTT3=
EXTT4=
EXTT5=
EXTT6=
EXTT7=
EXTT8=
EXTT9=
EXTT10=
EXTT11=
EXTT12=
EXTT13=
EXTT14=
EXTT15=
EXTT16=
PLAYORDER=
